HIERARCHY
ROOT Hips
{
	OFFSET 0.000000 103.266502 0.000000
	CHANNELS 6 Xposition Yposition Zposition Xrotation Yrotation Zrotation 
	JOINT Spine
	{
		OFFSET -0.002400 12.777504 0.315300
		CHANNELS 3 Xrotation Yrotation Zrotation
		JOINT Spine1
		{
			OFFSET -0.002067 5.816869 0.032633
			CHANNELS 3 Xrotation Yrotation Zrotation
			JOINT Spine1_split
			{
				OFFSET -0.002067 5.816869 0.032633
				CHANNELS 3 Xrotation Yrotation Zrotation
				JOINT Spine2
				{
					OFFSET -0.002067 5.816869 0.032633
					CHANNELS 3 Xrotation Yrotation Zrotation
					JOINT Neck
					{
						OFFSET -0.003700 21.199493 -0.826900
						CHANNELS 3 Xrotation Yrotation Zrotation
						JOINT Head
						{
							OFFSET 0.000000 20.442200 4.834800
							CHANNELS 3 Xrotation Yrotation Zrotation
							JOINT HeadTop_End
							{
								OFFSET 0.000000 34.668396 4.968400
								CHANNELS 3 Xrotation Yrotation Zrotation
								End Site
								{
									OFFSET 0.000000 0.000000 0.000000
								}
							}
						}
					}
					JOINT LeftShoulder
					{
						OFFSET 3.288150 8.794197 -1.372250
						CHANNELS 3 Xrotation Yrotation Zrotation
						JOINT LeftShoulder_split
						{
							OFFSET 3.288150 8.794197 -1.372250
							CHANNELS 3 Xrotation Yrotation Zrotation
							JOINT LeftArm
							{
								OFFSET 11.953299 -2.279007 -0.146200
								CHANNELS 3 Xrotation Yrotation Zrotation
								JOINT LeftForeArm
								{
									OFFSET 18.448900 0.000000 0.000000
									CHANNELS 3 Xrotation Yrotation Zrotation
									JOINT LeftHand
									{
										OFFSET 29.527798 0.000000 0.000000
										CHANNELS 3 Xrotation Yrotation Zrotation
										JOINT LeftHandThumb1
										{
											OFFSET 10.739754 -2.369614 9.225399
											CHANNELS 3 Xrotation Yrotation Zrotation
											JOINT LeftHandThumb2
											{
												OFFSET 4.926170 -2.844131 2.844125
												CHANNELS 3 Xrotation Yrotation Zrotation
												JOINT LeftHandThumb3
												{
													OFFSET 4.614891 -2.664413 2.664409
													CHANNELS 3 Xrotation Yrotation Zrotation
													JOINT LeftHandThumb4
													{
														OFFSET 4.432465 -2.559082 2.559083
														CHANNELS 3 Xrotation Yrotation Zrotation
														End Site
														{
															OFFSET 0.000000 0.000000 0.000000
														}
													}
												}
											}
										}
										JOINT LeftHandIndex1
										{
											OFFSET 26.467674 0.187653 6.405298
											CHANNELS 3 Xrotation Yrotation Zrotation
											JOINT LeftHandIndex2
											{
												OFFSET 8.792900 0.000000 0.000000
												CHANNELS 3 Xrotation Yrotation Zrotation
												JOINT LeftHandIndex3
												{
													OFFSET 10.075203 0.000000 0.000000
													CHANNELS 3 Xrotation Yrotation Zrotation
													End Site
													{
														OFFSET 0.000000 0.000000 0.000000
													}
												}
											}
										}
										JOINT LeftHandMiddle1
										{
											OFFSET 25.764404 0.000000 0.000000
											CHANNELS 3 Xrotation Yrotation Zrotation
											JOINT LeftHandMiddle2
											{
												OFFSET 9.393974 0.000000 0.000000
												CHANNELS 3 Xrotation Yrotation Zrotation
												JOINT LeftHandMiddle3
												{
													OFFSET 10.771950 0.000000 0.000000
													CHANNELS 3 Xrotation Yrotation Zrotation
													End Site
													{
														OFFSET 0.000000 0.000000 0.000000
													}
												}
											}
										}
										JOINT LeftHandRing1
										{
											OFFSET 24.660927 0.144547 -6.225808
											CHANNELS 3 Xrotation Yrotation Zrotation
											JOINT LeftHandRing2
											{
												OFFSET 9.393799 0.000000 0.000000
												CHANNELS 3 Xrotation Yrotation Zrotation
												JOINT LeftHandRing3
												{
													OFFSET 9.928497 0.000000 0.000000
													CHANNELS 3 Xrotation Yrotation Zrotation
													End Site
													{
														OFFSET 0.000000 0.000000 0.000000
													}
												}
											}
										}
										JOINT LeftHandPinky1
										{
											OFFSET 23.655350 0.125290 -12.815412
											CHANNELS 3 Xrotation Yrotation Zrotation
											JOINT LeftHandPinky2
											{
												OFFSET 8.425102 0.000000 0.000000
												CHANNELS 3 Xrotation Yrotation Zrotation
												JOINT LeftHandPinky3
												{
													OFFSET 8.147003 0.000000 0.000000
													CHANNELS 3 Xrotation Yrotation Zrotation
													End Site
													{
														OFFSET 0.000000 0.000000 0.000000
													}
												}
											}
										}
									}
								}
							}
						}
					}
					JOINT RightShoulder
					{
						OFFSET -3.249400 8.794197 -1.372250
						CHANNELS 3 Xrotation Yrotation Zrotation
						JOINT RightShoulder_split
						{
							OFFSET -3.249400 8.794197 -1.372250
							CHANNELS 3 Xrotation Yrotation Zrotation
							JOINT RightArm
							{
								OFFSET -11.953299 -2.279007 -0.146200
								CHANNELS 3 Xrotation Yrotation Zrotation
								JOINT RightForeArm
								{
									OFFSET -18.448900 0.000000 0.000000
									CHANNELS 3 Xrotation Yrotation Zrotation
									JOINT RightHand
									{
										OFFSET -29.527802 0.000000 0.000000
										CHANNELS 3 Xrotation Yrotation Zrotation
										JOINT RightHandThumb1
										{
											OFFSET -10.739754 -2.369614 9.225399
											CHANNELS 3 Xrotation Yrotation Zrotation
											JOINT RightHandThumb2
											{
												OFFSET -4.926170 -2.844131 2.844125
												CHANNELS 3 Xrotation Yrotation Zrotation
												JOINT RightHandThumb3
												{
													OFFSET -4.614891 -2.664413 2.664409
													CHANNELS 3 Xrotation Yrotation Zrotation
													JOINT RightHandThumb4
													{
														OFFSET -4.432465 -2.559082 2.559083
														CHANNELS 3 Xrotation Yrotation Zrotation
														End Site
														{
															OFFSET 0.000000 0.000000 0.000000
														}
													}
												}
											}
										}
										JOINT RightHandIndex1
										{
											OFFSET -26.467674 0.187653 6.405298
											CHANNELS 3 Xrotation Yrotation Zrotation
											JOINT RightHandIndex2
											{
												OFFSET -8.792900 0.000000 0.000000
												CHANNELS 3 Xrotation Yrotation Zrotation
												JOINT RightHandIndex3
												{
													OFFSET -10.075203 0.000000 0.000000
													CHANNELS 3 Xrotation Yrotation Zrotation
													End Site
													{
														OFFSET 0.000000 0.000000 0.000000
													}
												}
											}
										}
										JOINT RightHandMiddle1
										{
											OFFSET -25.764404 0.000000 0.000000
											CHANNELS 3 Xrotation Yrotation Zrotation
											JOINT RightHandMiddle2
											{
												OFFSET -9.393974 0.000000 0.000000
												CHANNELS 3 Xrotation Yrotation Zrotation
												JOINT RightHandMiddle3
												{
													OFFSET -10.771950 0.000000 0.000000
													CHANNELS 3 Xrotation Yrotation Zrotation
													End Site
													{
														OFFSET 0.000000 0.000000 0.000000
													}
												}
											}
										}
										JOINT RightHandRing1
										{
											OFFSET -24.660927 0.144547 -6.225808
											CHANNELS 3 Xrotation Yrotation Zrotation
											JOINT RightHandRing2
											{
												OFFSET -9.393799 0.000000 0.000000
												CHANNELS 3 Xrotation Yrotation Zrotation
												JOINT RightHandRing3
												{
													OFFSET -9.928497 0.000000 0.000000
													CHANNELS 3 Xrotation Yrotation Zrotation
													End Site
													{
														OFFSET 0.000000 0.000000 0.000000
													}
												}
											}
										}
										JOINT RightHandPinky1
										{
											OFFSET -23.655350 0.125290 -12.815412
											CHANNELS 3 Xrotation Yrotation Zrotation
											JOINT RightHandPinky2
											{
												OFFSET -8.425102 0.000000 0.000000
												CHANNELS 3 Xrotation Yrotation Zrotation
												JOINT RightHandPinky3
												{
													OFFSET -8.147003 0.000000 0.000000
													CHANNELS 3 Xrotation Yrotation Zrotation
													End Site
													{
														OFFSET 0.000000 0.000000 0.000000
													}
												}
											}
										}
									}
								}
							}
						}
					}
				}
			}
		}
	}
	JOINT LeftUpLeg
	{
		OFFSET 11.394100 -6.187798 -0.413800
		CHANNELS 3 Xrotation Yrotation Zrotation
		JOINT LeftLeg
		{
			OFFSET 0.430247 -32.302673 3.732800
			CHANNELS 3 Xrotation Yrotation Zrotation
			JOINT LeftFoot
			{
				OFFSET -0.430247 -48.264931 -6.423300
				CHANNELS 3 Xrotation Yrotation Zrotation
				JOINT LeftToeBase
				{
					OFFSET 4.230900 -16.068199 23.438400
					CHANNELS 3 Xrotation Yrotation Zrotation
					JOINT LeftToe_End
					{
						OFFSET 4.510700 0.695400 19.974600
						CHANNELS 3 Xrotation Yrotation Zrotation
						End Site
						{
							OFFSET 0.000000 0.000000 0.000000
						}
					}
				}
			}
		}
	}
	JOINT RightUpLeg
	{
		OFFSET -11.333700 -6.187798 -0.413800
		CHANNELS 3 Xrotation Yrotation Zrotation
		JOINT RightLeg
		{
			OFFSET -0.430392 -32.302628 3.733000
			CHANNELS 3 Xrotation Yrotation Zrotation
			JOINT RightFoot
			{
				OFFSET 0.430392 -48.264973 -6.423500
				CHANNELS 3 Xrotation Yrotation Zrotation
				JOINT RightToeBase
				{
					OFFSET -4.230900 -16.068199 23.438400
					CHANNELS 3 Xrotation Yrotation Zrotation
					JOINT RightToe_End
					{
						OFFSET -4.510700 0.695400 19.974600
						CHANNELS 3 Xrotation Yrotation Zrotation
						End Site
						{
							OFFSET 0.000000 0.000000 0.000000
						}
					}
				}
			}
		}
	}
}
MOTION
Frames: 4
Frame Time: 0.016667
4.242163 92.398628 118.716125 4.443764 -6.154766 -3.076355 16.230580 3.369214 1.451032 20.044447 7.628497 3.273777 0.000000 0.000000 0.000000 19.863230 7.768544 3.728083 -47.889957 28.030582 -28.867187 36.505397 -35.951001 36.350332 -0.000001 -0.000000 0.000000 -3.629735 -15.408608 -10.382902 0.000000 0.000000 0.000000 -11.971363 6.480801 -65.205070 -0.000013 -64.653908 -0.000013 10.348442 11.182145 -5.507151 40.231570 -29.869688 63.220641 101.357145 66.798096 231.385717 -12.925924 -19.532208 6.920544 0.000000 0.000000 -0.000002 0.326282 4.094613 -16.584186 0.575165 2.533362 -25.578758 0.000001 0.000001 -0.000003 -1.060369 2.730917 -36.207543 1.715305 4.142496 -44.971803 -0.000001 0.000000 -0.000001 -3.216815 3.157190 -55.387797 2.284638 4.641484 -52.395843 0.000000 0.000001 -0.000000 -4.251956 3.052458 -58.936972 2.013184 4.419824 -48.960490 -0.000000 -0.000003 -0.000000 -0.264760 19.358402 4.692114 0.000000 0.000000 0.000000 -45.642756 8.432342 36.901470 0.000035 101.974513 -0.000039 -5.090094 -12.734928 15.640867 33.081796 30.015222 -8.052869 13.702058 -51.628457 20.266326 8.634606 -42.419184 1.849741 0.000001 0.000000 0.000003 0.112179 -3.191137 17.097145 3.780004 -4.573997 79.132038 -0.000001 0.000000 -0.000000 2.613389 -8.387964 27.063286 5.675762 -4.544655 102.647122 0.000001 -0.000000 0.000000 1.668046 -5.863649 57.331536 4.190480 -4.633778 84.242474 0.000000 0.000000 -0.000000 1.874830 -6.023818 60.182429 3.825256 -4.582429 79.698875 -0.000001 0.000000 0.000000 -53.279150 8.700548 9.771060 37.871070 -6.212005 3.272055 2.687886 -13.886297 -2.459570 4.494564 -1.670360 0.264128 -0.000000 -0.000001 -0.000000 -26.516292 2.345073 8.032381 46.030875 3.131347 -2.422541 -23.426613 -0.687864 -1.013420 -1.310681 0.000000 0.000002 0.000000 0.000000 0.000000 
3.990989 92.605453 117.816879 3.550503 -6.380087 -3.505572 16.044203 3.372239 1.564255 19.617244 7.612216 3.331498 0.000000 0.000000 0.000000 19.436458 7.747064 3.778476 -47.550650 27.672098 -28.991383 38.119238 -35.320657 37.422729 0.000001 -0.000001 -0.000000 -3.381592 -14.879787 -10.335931 0.000000 0.000000 0.000000 -13.224279 6.607389 -66.021865 0.000012 -61.657730 0.000008 11.729644 10.831203 -6.290864 40.231570 -29.869674 63.220675 101.357145 66.798089 231.385717 -12.925891 -19.532196 6.920533 -0.000001 -0.000000 0.000001 0.332589 4.115501 -16.628104 0.574480 2.531939 -25.563276 0.000001 0.000001 -0.000004 -1.056180 2.737762 -36.217006 1.715065 4.142258 -44.968514 0.000000 0.000002 -0.000001 -3.220683 3.154170 -55.385686 2.283633 4.640717 -52.383535 0.000000 -0.000000 0.000000 -4.265348 3.043557 -58.932935 2.013854 4.420408 -48.969147 -0.000001 -0.000001 -0.000000 -0.354247 18.524216 5.452754 0.000000 0.000000 0.000000 -46.329641 9.134339 35.856082 0.000052 102.007762 -0.000033 -4.606133 -14.524221 16.388238 33.376515 32.501018 -7.034580 15.577889 -52.554320 22.116832 7.397167 -41.000563 0.906532 0.000002 0.000001 0.000002 0.230058 -3.590283 18.982738 3.761839 -4.570490 78.904066 0.000000 -0.000001 0.000000 2.920887 -8.736727 28.390122 5.675508 -4.544708 102.644042 0.000001 -0.000000 -0.000000 1.674758 -5.879996 58.233121 4.191175 -4.633832 84.251046 -0.000001 -0.000000 0.000000 1.781892 -5.983846 61.063483 3.804119 -4.578540 79.434157 0.000001 0.000000 -0.000000 -52.928318 8.680753 10.541793 38.319134 -5.905338 3.621544 0.730965 -11.245707 -2.904866 4.289520 -1.961964 0.567515 0.000000 -0.000001 0.000000 -25.798296 2.106766 8.245206 45.275487 3.450729 -2.141332 -22.841961 -0.522437 -0.994785 -1.095157 -0.000001 0.000000 0.000000 0.000000 0.000000 
3.755946 92.784927 116.950500 2.646081 -6.488507 -3.879560 15.876406 3.366635 1.697629 19.228929 7.527442 3.365999 0.000000 0.000000 0.000000 19.049729 7.657294 3.800926 -47.323034 27.067685 -28.852587 39.262127 -34.801996 37.979048 0.000001 0.000000 -0.000001 -3.121605 -14.392984 -10.230467 0.000000 0.000000 0.000000 -14.562996 6.814963 -66.747286 -0.000015 -58.543846 -0.000019 13.133019 10.507485 -7.034938 40.231570 -29.869694 63.220641 101.357063 66.798082 231.385827 -12.925879 -19.532207 6.920511 -0.000001 -0.000000 0.000002 0.338916 4.136352 -16.672031 0.573793 2.530521 -25.547841 -0.000002 0.000001 -0.000003 -1.051992 2.744605 -36.226504 1.714827 4.142009 -44.965215 0.000001 -0.000001 -0.000002 -3.224552 3.151146 -55.383586 2.282645 4.639949 -52.371261 0.000000 0.000002 -0.000000 -4.278736 3.034642 -58.928919 2.014520 4.420991 -48.977818 0.000000 -0.000000 -0.000000 -0.392658 17.683329 6.225817 0.000000 0.000000 0.000000 -47.721876 9.660098 34.897824 0.000246 101.754464 -0.000278 -3.782707 -15.360831 17.241462 33.184279 33.896467 -6.641138 19.104920 -53.466410 25.625763 4.384497 -38.344347 -1.908730 -0.000002 -0.000001 0.000000 0.430328 -4.130903 22.535892 3.754263 -4.568994 78.809031 0.000000 -0.000000 0.000000 3.498118 -9.251683 31.121504 5.680936 -4.543495 102.712412 -0.000001 -0.000000 0.000000 1.784280 -5.966291 59.751519 4.181620 -4.632866 84.132836 0.000000 -0.000000 -0.000000 1.716439 -5.975400 62.613949 3.744614 -4.567067 78.687993 -0.000002 -0.000000 -0.000000 -52.638810 8.901424 11.263915 38.972803 -5.843361 3.990935 -1.412439 -8.424351 -3.046266 4.116058 -2.409847 0.997263 0.000001 0.000000 -0.000000 -25.249773 1.820922 8.517850 44.836364 3.767018 -1.984680 -22.157999 -0.473067 -1.047042 -0.872600 0.000001 0.000001 -0.000000 -0.000000 0.000000 
3.540336 92.943565 116.116348 1.732418 -6.456728 -4.187787 15.712278 3.358611 1.852962 18.892730 7.360077 3.379201 0.000000 0.000000 0.000000 18.719016 7.487801 3.782730 -47.227982 26.281465 -28.461887 39.969912 -34.405152 38.024025 -0.000003 -0.000000 0.000001 -2.920880 -13.934227 -10.054509 0.000000 0.000000 0.000000 -15.900435 7.130564 -67.405006 -0.000015 -55.377354 -0.000035 14.612000 10.219439 -7.765590 40.231559 -29.869684 63.220641 101.357159 66.798082 231.385745 -12.925863 -19.532215 6.920520 0.000001 -0.000000 -0.000004 0.345263 4.157183 -16.715908 0.573117 2.529094 -25.532466 -0.000003 0.000001 -0.000002 -1.047808 2.751432 -36.235977 1.714586 4.141780 -44.961909 0.000001 -0.000002 -0.000000 -3.228410 3.148118 -55.381496 2.281646 4.639187 -52.358943 -0.000001 0.000002 -0.000000 -4.292114 3.025739 -58.924848 2.015190 4.421564 -48.986479 0.000000 0.000001 0.000000 -0.415597 16.816233 7.010206 0.000000 0.000000 0.000000 -50.064843 9.752494 34.132696 -0.000030 102.015234 0.000020 -0.832186 -16.814196 17.983345 32.697926 34.534861 -6.548628 23.673121 -54.235493 30.132899 0.999299 -34.867395 -5.347181 0.000001 -0.000001 -0.000000 0.718699 -4.714147 27.043096 3.751672 -4.568482 78.776574 0.000002 0.000003 -0.000002 4.252583 -9.772380 34.665987 5.688874 -4.541692 102.812597 -0.000003 -0.000001 -0.000000 1.962015 -6.088672 61.568992 4.166804 -4.631338 83.949377 -0.000002 -0.000000 -0.000000 1.641901 -5.979096 64.563504 3.670859 -4.551744 77.759914 -0.000004 -0.000000 -0.000000 -52.073827 8.304767 11.981521 39.653664 -4.002614 3.741177 -3.604415 -6.599994 -3.047708 3.731101 -2.876474 1.489690 0.000001 0.000001 0.000000 -24.700848 1.453851 8.809442 44.501363 4.037477 -1.955853 -21.410505 -0.509144 -1.300171 -0.815233 0.000000 0.000002 0.000000 -0.000000 -0.000000 
